<svg xmlns="http://www.w3.org/2000/svg" width="512" height="512" viewBox="0 0 512 512" version="1.1"><path d="" stroke="none" fill="#080404" fill-rule="evenodd"/><path d="M 238.892 2.316 C 235.808 3.606, 231.758 5.706, 229.892 6.984 C 224.786 10.479, 15.542 219.614, 10.505 226.257 C 3.362 235.675, 1.551 241.490, 1.551 255 C 1.551 268.293, 3.348 274.251, 10.069 283.240 C 18.391 294.371, 29.622 300.369, 45.697 302.267 L 54.893 303.353 55.235 384.427 C 55.551 459.192, 55.717 465.928, 57.375 471 C 62.084 485.408, 72.948 498.679, 85.025 504.777 C 97.191 510.919, 97.783 510.975, 150 510.984 C 195.329 510.992, 197.646 510.903, 200.696 509.044 C 207.872 504.668, 207.444 509.004, 208 435.045 C 208.494 369.248, 208.524 368.455, 210.658 364.500 C 213.484 359.264, 217.452 355.592, 223 353.081 C 227.199 351.180, 229.476 351.043, 257 351.032 C 285.919 351.020, 286.600 351.066, 291.571 353.381 C 294.360 354.679, 298.085 357.488, 299.850 359.621 C 306.011 367.072, 306 366.927, 306.002 436.432 C 306.003 506.741, 305.737 503.946, 312.898 508.730 L 316.296 511 363.898 510.988 C 416.229 510.975, 416.830 510.918, 428.953 504.777 C 437.430 500.482, 447.482 490.430, 451.777 481.953 C 458.662 468.361, 458.337 472.935, 458.742 383.908 L 459.108 303.316 469.034 302.237 C 476.925 301.380, 480.451 300.439, 486.230 297.651 C 495.448 293.204, 503.943 284.881, 508.308 276.021 C 511.454 269.636, 511.500 269.332, 511.500 255 C 511.500 231.032, 523.349 245.096, 395.127 116.873 C 267.572 -10.681, 280.930 0.683, 258.029 0.235 C 245.753 -0.005, 243.981 0.188, 238.892 2.316 M 251.543 30.497 C 248.387 31.621, 225.855 53.653, 140.365 139.203 C 44.112 235.525, 33.031 246.935, 32.034 250.750 C 29.801 259.292, 35.089 268.543, 43.547 270.891 C 45.721 271.495, 53.575 271.992, 61 271.996 C 75.922 272.004, 79.542 273.025, 83.429 278.323 C 85.479 281.116, 85.505 282.078, 86 371.823 C 86.499 462.406, 86.502 462.504, 88.662 466.500 C 91.459 471.674, 96.469 476.435, 101.500 478.699 C 105.065 480.304, 109.380 480.533, 141.191 480.807 L 176.882 481.115 177.223 423.307 C 177.557 366.849, 177.616 365.347, 179.768 358.928 C 185.890 340.661, 201.888 325.831, 220.103 321.537 C 227.979 319.681, 283.671 319.335, 292.201 321.090 C 295.115 321.690, 301.100 323.909, 305.500 326.022 C 318.721 332.372, 328.422 343.373, 333.803 358.119 L 336.496 365.500 336.814 423.307 L 337.131 481.115 372.816 480.807 C 413.254 480.459, 413.871 480.350, 421.194 472.220 C 428.221 464.418, 428 467.723, 428.002 370.568 C 428.003 289.652, 428.127 283.258, 429.752 280.071 C 433.245 273.220, 435.212 272.559, 453.820 271.988 C 473.635 271.379, 476.769 270.238, 480.987 262.100 C 482.708 258.780, 482.545 250.939, 480.681 247.423 C 479.829 245.816, 431.065 196.498, 372.316 137.829 C 279.780 45.419, 264.965 31.015, 261.500 30.085 C 256.561 28.759, 256.405 28.765, 251.543 30.497" stroke="none" fill="#040404" fill-rule="evenodd"/></svg>