<?xml version="1.0" encoding="UTF-8" standalone="no"?>
<svg
   width="510.23734"
   height="510.85852"
   viewBox="0 0 510.23734 510.85852"
   version="1.1"
   id="svg2"
   sodipodi:docname="trace(2).svg"
   inkscape:export-filename="trace(2)-2.svg"
   inkscape:export-xdpi="4.7036934"
   inkscape:export-ydpi="4.7036934"
   xmlns:inkscape="http://www.inkscape.org/namespaces/inkscape"
   xmlns:sodipodi="http://sodipodi.sourceforge.net/DTD/sodipodi-0.dtd"
   xmlns="http://www.w3.org/2000/svg"
   xmlns:svg="http://www.w3.org/2000/svg">
  <defs
     id="defs2" />
  <sodipodi:namedview
     id="namedview2"
     pagecolor="#ffffff"
     bordercolor="#000000"
     borderopacity="0.25"
     inkscape:showpageshadow="2"
     inkscape:pageopacity="0.0"
     inkscape:pagecheckerboard="0"
     inkscape:deskcolor="#d1d1d1"
     showgrid="false" />
  <path
     d="m 237.341,2.1745318 c -3.084,1.29 -7.134,3.39 -9,4.668 C 223.235,10.337532 13.991,219.47253 8.954,226.11553 1.811,235.53353 0,241.34853 0,254.85853 c 0,13.293 1.797,19.251 8.518,28.24 8.322,11.131 19.553,17.129 35.628,19.027 l 9.196,1.086 0.342,81.074 c 0.316,74.765 0.482,81.501 2.14,86.573 4.709,14.408 15.573,27.679 27.65,33.777 12.166,6.142 12.758,6.198 64.975,6.207 45.329,0.008 47.646,-0.081 50.696,-1.94 7.176,-4.376 6.748,-0.04 7.304,-73.999 0.494,-65.797 0.524,-66.59 2.658,-70.545 2.826,-5.236 6.794,-8.908 12.342,-11.419 4.199,-1.901 6.476,-2.038 34,-2.049 28.919,-0.012 29.6,0.034 34.571,2.349 2.789,1.298 6.514,4.107 8.279,6.24 6.161,7.451 6.15,7.306 6.152,76.811 10e-4,70.309 -0.265,67.514 6.896,72.298 l 3.398,2.27 47.602,-0.012 c 52.331,-0.013 52.932,-0.07 65.055,-6.211 8.477,-4.295 18.529,-14.347 22.824,-22.824 6.885,-13.592 6.56,-9.018 6.965,-98.045 l 0.366,-80.592 9.926,-1.079 c 7.891,-0.857 11.417,-1.798 17.196,-4.586 9.218,-4.447 17.713,-12.77 22.078,-21.63 3.146,-6.385 3.192,-6.689 3.192,-21.021 0,-23.968 11.849,-9.904 -116.373,-138.127 C 266.021,-10.822468 279.379,0.54153176 256.478,0.09353176 c -12.276,-0.24 -14.048,-0.047 -19.137,2.08100004 m 12.651,28.1810002 c -3.156,1.124 -25.688,23.156 -111.178,108.705998 -96.253,96.322 -107.334,107.732 -108.331,111.547 -2.233,8.542 3.055,17.793 11.513,20.141 2.174,0.604 10.028,1.101 17.453,1.105 14.922,0.008 18.542,1.029 22.429,6.327 2.05,2.793 2.076,3.755 2.571,93.5 0.499,90.583 0.502,90.681 2.662,94.677 2.797,5.174 7.807,9.935 12.838,12.199 3.565,1.605 7.88,1.834 39.691,2.108 l 35.691,0.308 0.341,-57.808 c 0.334,-56.458 0.393,-57.96 2.545,-64.379 6.122,-18.267 22.12,-33.097 40.335,-37.391 7.876,-1.856 63.568,-2.202 72.098,-0.447 2.914,0.6 8.899,2.819 13.299,4.932 13.221,6.35 22.922,17.351 28.303,32.097 l 2.693,7.381 0.318,57.807 0.317,57.808 35.685,-0.308 c 40.438,-0.348 41.055,-0.457 48.378,-8.587 7.027,-7.802 6.806,-4.497 6.808,-101.652 10e-4,-80.916 0.125,-87.31 1.75,-90.497 3.493,-6.851 5.46,-7.512 24.068,-8.083 19.815,-0.609 22.949,-1.75 27.167,-9.888 1.721,-3.32 1.558,-11.161 -0.306,-14.677 -0.852,-1.607 -49.616,-50.925 -108.365,-109.594 C 278.229,45.277532 263.414,30.873532 259.949,29.943532 c -4.939,-1.326 -5.095,-1.32 -9.957,0.412"
     stroke="none"
     fill="#040404"
     fill-rule="evenodd"
     id="path2"
     style="display:inline" />
</svg>
