<svg xmlns="http://www.w3.org/2000/svg" width="512" height="512" viewBox="0 0 512 512" version="1.1"><path d="" stroke="none" fill="#080404" fill-rule="evenodd"/><path d="M 440.218 17.607 C 438.413 18.527, 435.938 20.680, 434.718 22.390 C 432.642 25.300, 432.480 26.736, 432.191 44.750 C 431.899 62.898, 431.772 64, 429.978 64 C 428.931 64, 425.471 64.973, 422.288 66.162 C 414.296 69.149, 405.149 78.296, 402.162 86.288 L 400 92.075 400 192 L 400 291.925 402.162 297.712 C 405.149 305.704, 414.296 314.851, 422.288 317.838 C 425.471 319.027, 428.931 320, 429.978 320 C 431.772 320, 431.899 321.102, 432.191 339.250 C 432.470 356.658, 432.691 358.757, 434.500 361.182 C 441.706 370.846, 457.517 369.860, 462.462 359.439 C 463.670 356.893, 464 352.314, 464 338.099 C 464 320.782, 464.085 320, 465.962 320 C 467.042 320, 470.529 319.027, 473.712 317.838 C 481.704 314.851, 490.851 305.704, 493.838 297.712 L 496 291.925 496 192 L 496 92.075 493.838 86.288 C 490.851 78.296, 481.704 69.149, 473.712 66.162 C 470.529 64.973, 467.042 64, 465.962 64 C 464.085 64, 464 63.218, 464 45.886 C 464 29.414, 463.813 27.443, 461.932 24.136 C 460.795 22.136, 458.678 19.622, 457.228 18.549 C 453.620 15.879, 444.586 15.379, 440.218 17.607 M 184.218 113.607 C 182.413 114.527, 179.938 116.680, 178.718 118.390 C 176.642 121.300, 176.480 122.736, 176.191 140.750 C 175.899 158.898, 175.772 160, 173.978 160 C 172.931 160, 169.471 160.973, 166.288 162.162 C 158.296 165.149, 149.149 174.296, 146.162 182.288 C 144.009 188.051, 144 188.424, 144 272 C 144 355.576, 144.009 355.949, 146.162 361.712 C 149.149 369.704, 158.296 378.851, 166.288 381.838 C 169.471 383.027, 172.931 384, 173.978 384 C 175.772 384, 175.899 385.102, 176.191 403.250 C 176.470 420.658, 176.691 422.757, 178.500 425.182 C 185.706 434.846, 201.517 433.860, 206.462 423.439 C 207.670 420.893, 208 416.314, 208 402.099 C 208 384.782, 208.085 384, 209.962 384 C 211.042 384, 214.529 383.027, 217.712 381.838 C 225.704 378.851, 234.851 369.704, 237.838 361.712 C 239.991 355.949, 240 355.576, 240 272 C 240 188.424, 239.991 188.051, 237.838 182.288 C 234.851 174.296, 225.704 165.149, 217.712 162.162 C 214.529 160.973, 211.042 160, 209.962 160 C 208.085 160, 208 159.218, 208 141.886 C 208 125.414, 207.813 123.443, 205.932 120.136 C 204.795 118.136, 202.678 115.622, 201.228 114.549 C 197.620 111.879, 188.586 111.379, 184.218 113.607 M 312.218 177.607 C 310.413 178.527, 307.938 180.680, 306.718 182.390 C 304.642 185.300, 304.480 186.736, 304.191 204.750 C 303.899 222.898, 303.772 224, 301.978 224 C 300.931 224, 297.471 224.973, 294.288 226.162 C 286.296 229.149, 277.149 238.296, 274.162 246.288 C 272.016 252.033, 272 252.624, 272 328 C 272 403.376, 272.016 403.967, 274.162 409.712 C 277.149 417.704, 286.296 426.851, 294.288 429.838 C 297.471 431.027, 300.931 432, 301.978 432 C 303.772 432, 303.899 433.102, 304.191 451.250 C 304.470 468.658, 304.691 470.757, 306.500 473.182 C 313.706 482.846, 329.517 481.860, 334.462 471.439 C 335.670 468.893, 336 464.314, 336 450.099 C 336 432.782, 336.085 432, 337.962 432 C 339.042 432, 342.529 431.027, 345.712 429.838 C 353.704 426.851, 362.851 417.704, 365.838 409.712 C 367.984 403.967, 368 403.376, 368 328 C 368 252.624, 367.984 252.033, 365.838 246.288 C 362.851 238.296, 353.704 229.149, 345.712 226.162 C 342.529 224.973, 339.042 224, 337.962 224 C 336.085 224, 336 223.218, 336 205.886 C 336 189.414, 335.813 187.443, 333.932 184.136 C 332.795 182.136, 330.678 179.622, 329.228 178.549 C 325.620 175.879, 316.586 175.379, 312.218 177.607 M 56.218 241.607 C 54.413 242.527, 51.938 244.680, 50.718 246.390 C 48.642 249.300, 48.480 250.736, 48.191 268.750 C 47.899 286.898, 47.772 288, 45.978 288 C 44.931 288, 41.471 288.973, 38.288 290.162 C 30.296 293.149, 21.149 302.296, 18.162 310.288 C 16.048 315.947, 16 317.225, 16 368 C 16 418.775, 16.048 420.053, 18.162 425.712 C 21.149 433.704, 30.296 442.851, 38.288 445.838 C 41.471 447.027, 44.931 448, 45.978 448 C 47.772 448, 47.899 449.102, 48.191 467.250 C 48.470 484.658, 48.691 486.757, 50.500 489.182 C 57.706 498.846, 73.517 497.860, 78.462 487.439 C 79.670 484.893, 80 480.314, 80 466.099 C 80 448.782, 80.085 448, 81.962 448 C 83.042 448, 86.529 447.027, 89.712 445.838 C 97.704 442.851, 106.851 433.704, 109.838 425.712 C 111.952 420.053, 112 418.775, 112 368 C 112 317.225, 111.952 315.947, 109.838 310.288 C 106.851 302.296, 97.704 293.149, 89.712 290.162 C 86.529 288.973, 83.042 288, 81.962 288 C 80.085 288, 80 287.218, 80 269.886 C 80 253.414, 79.813 251.443, 77.932 248.136 C 76.795 246.136, 74.678 243.622, 73.228 242.549 C 69.620 239.879, 60.586 239.379, 56.218 241.607" stroke="none" fill="#040404" fill-rule="evenodd"/></svg>