<svg xmlns="http://www.w3.org/2000/svg" width="512" height="512" viewBox="0 0 512 512" version="1.1"><path d="M 290 1.121 C 283.750 2.801, 278.618 5.292, 272.500 9.613 C 269.200 11.943, 248.052 32.334, 225.505 54.925 L 184.509 96 127.465 96 C 80.170 96, 69.443 96.255, 64.703 97.489 C 46.746 102.166, 32.239 115.902, 26.715 133.458 L 24.500 140.500 24.500 304 L 24.500 467.500 26.715 474.542 C 32.217 492.027, 46.618 505.886, 64.131 510.547 C 68.692 511.761, 97.319 511.978, 254.356 511.988 C 458.531 512.001, 444.609 512.432, 457.500 505.696 C 465.519 501.506, 476.890 490.147, 480.775 482.448 C 487.976 468.177, 487.500 477.875, 487.500 345.500 C 487.500 213.201, 487.969 222.805, 480.820 208.643 C 477.977 203.011, 467.388 191.207, 462.244 187.935 L 459.988 186.500 462.662 180 C 467.650 167.878, 466.960 152.500, 460.858 139.781 C 458.155 134.147, 451.544 127.228, 396.672 72.607 C 358.438 34.548, 333.277 10.262, 329.572 7.842 C 321.186 2.365, 312.747 -0.020, 302.145 0.090 C 297.390 0.140, 291.925 0.604, 290 1.121 M 297 22.895 C 288.562 24.675, 285.463 27.434, 229 83.431 C 197.925 114.249, 163.500 148.357, 152.500 159.226 L 132.500 178.988 285.296 178.994 L 438.092 179 440.536 173.750 C 443.979 166.354, 443.941 157.281, 440.436 150.248 C 436.819 142.990, 322.527 29.842, 314.721 25.791 C 309.001 22.823, 302.430 21.749, 297 22.895 M 67.500 120.328 C 54.577 125.395, 47.606 135.276, 47.625 148.500 C 47.638 157.220, 50.415 164.032, 56.308 169.801 C 63.540 176.880, 68.211 178.314, 85.500 178.766 L 100.500 179.157 130.494 149.079 L 160.487 119 115.494 119.076 C 83.534 119.130, 69.631 119.493, 67.500 120.328 M 47.233 329.298 L 47.500 466.500 50.306 472.214 C 53.604 478.930, 60.193 485.104, 66.805 487.675 C 71.277 489.413, 79.986 489.514, 250.500 489.787 C 376.577 489.990, 431.392 489.752, 435.898 488.982 C 447.856 486.941, 456.744 480.293, 461.615 469.747 L 464.500 463.500 464.500 345.500 L 464.500 227.500 461.865 221.880 C 456.619 210.693, 447.867 203.995, 435.970 202.065 C 431.625 201.360, 370.174 201.013, 248.855 201.008 C 71.244 201, 68.104 200.967, 61.855 199.008 C 58.360 197.912, 53.580 195.908, 51.233 194.556 L 46.965 192.096 47.233 329.298" stroke="none" fill="#040404" fill-rule="evenodd"/><path d="M 283.342 122.479 C 259.409 126.822, 239.027 140.185, 225.692 160.277 C 222.001 165.837, 217 176.051, 217 178.029 C 217 178.602, 221.839 179, 228.823 179 L 240.647 179 245.456 171.962 C 264.346 144.316, 301.289 135.902, 329.930 152.724 C 337.797 157.344, 348.627 167.926, 351.998 174.286 L 354.497 179 366.816 179 C 380.995 179, 380.383 179.810, 374.751 168.500 C 358.171 135.205, 319.766 115.870, 283.342 122.479 M 331.500 286.698 C 320.836 288.112, 307.634 294.229, 299.063 301.726 C 296.097 304.321, 291.497 309.773, 288.841 313.841 C 271.374 340.597, 277.325 376.792, 302.273 395.546 C 309.760 401.174, 313.385 403.068, 322.500 406.114 L 329.500 408.453 397.250 408.778 L 465 409.103 465 397.585 L 465 386.067 398.250 385.784 L 331.500 385.500 325.500 383.091 C 317.291 379.796, 307.141 369.709, 304.260 361.982 C 296.799 341.976, 304.873 321.641, 323.849 312.651 L 330.500 309.500 397.750 309.217 L 465 308.933 465 297.467 L 465 286 399.750 286.150 C 363.863 286.232, 333.150 286.479, 331.500 286.698 M 341.388 336.980 C 335.385 339.406, 332.907 349.070, 336.966 354.230 C 340.435 358.640, 343.331 359.154, 362.800 358.815 L 380.874 358.500 383.925 355.575 C 387.767 351.890, 388.718 347.315, 386.577 342.803 C 383.629 336.591, 381.387 335.992, 361.346 336.063 C 351.531 336.098, 342.550 336.511, 341.388 336.980" stroke="none" fill="#34cccc" fill-rule="evenodd"/></svg>