<svg xmlns="http://www.w3.org/2000/svg" viewBox="0 0 113 121"><g fill="none" stroke="#caccca" stroke-opacity=".824" stroke-width="2"><path d="M26.6 78.65c.81 3.16 1.21-1.12.21-.65a.6.46 70.7 0 0-.21.65M86.68 78.38q-1.04.97.27 1.05a.82.77 15.7 0 0 .77-.4q.33-.62-.18-.85a.87.69-51.5 0 0-.86.2" vector-effect="non-scaling-stroke"/></g><path fill="#fff" d="M91.15 16.79q-1.51 1.21.36.71 6.53-1.73 13.49-1.67a.34.33 12 0 1 .32.47l-3.79 8.1a.6.54 21.1 0 1-.71.27q-5.09-1.82-11.52-1.21-1.84.17-.27 1.16 10.29 6.45 12.56 16.36C107.48 66.64 73.73 77.54 58.02 60a1.74 1.73-43.7 0 0-2.53-.05c-6.78 7.02-12.71 9.26-22.54 8.52-24.06-1.83-28.87-33.59-8.27-43.42q1.94-.93-.17-1.37-5.9-1.2-11.5.91a.56.53-23 0 1-.7-.26L8.65 16.4a.34.34-13.3 0 1 .3-.48q7.17-.29 13.06 1.48.41.13.59-.02a.51.33 41.7 0 0-.18-.65q-7.11-5.54-16.14-6.17a.86.83-10.4 0 1-.72-.48L2.07 2.65a.62.61 78.3 0 1 .57-.88q18.64.49 32.73 12.92a1.17 1.13-27.3 0 0 .89.27c4.8-.54 9.93-2.98 13.28 1.93a.32.31-21.7 0 1-.22.49c-1.81.26-14.17 3.11-14.47 4.63a.51.35-5.2 0 0 .63.36q8.75-2.06 17.71-2.39a1.39 1.09 58.4 0 1 .86.32l3.78 3.05a.65.57-45.1 0 0 .78-.05l3.54-2.99a1.32 1.23 25.2 0 1 .9-.29q7.86.55 15.49 2.28.54.12.38-.31c-.55-1.46-10.69-3.94-12.44-4.23q-1.29-.21-.22-1.05l3.12-2.44a1.31.93-53.2 0 1 .87-.28l7.23 1.14a1.08 1 26.9 0 0 .87-.25q14.04-12.5 33.02-13.14a.37.36-83 0 1 .36.47q-1.23 4.32-3.79 8.05a1.04 1.01 14.8 0 1-.79.44q-9.21.68-16 6.09ZM53.889 45.087a18.41 17.87-.6 0 0-18.596-17.676A18.41 17.87-.6 0 0 17.07 45.473a18.41 17.87-.6 0 0 18.596 17.676A18.41 17.87-.6 0 0 53.89 45.087Zm42.95.45a18.4 17.85.8 0 0-18.15-18.105 18.4 17.85.8 0 0-18.647 17.591A18.4 17.85.8 0 0 78.19 63.128a18.4 17.85.8 0 0 18.647-17.591Z"/><path fill="#fff" d="M34.67 57.06a1.28 1.27-85.3 0 1-1.19-1.41c.81-7.25 6.03-12.19 13.37-12.1q2.83.03 1.75 3.75-3.02 10.38-13.93 9.76Z"/><ellipse fill="#fff" rx="9.28" ry="4.83" transform="rotate(-40.1 112.176 -90.759)"/><path fill="#fff" d="M80.19 82.25q-5.07-.61-9.85-2.45a.31.24 26.6 0 1-.18-.39q.12-.17.33-.13 6.22 1.09 11.79.83a1.2.87 11.8 0 0 .85-.38l2.51-3.47q1.06-1.46-.9-1.5c-1.22-.02-12.07-.91-11.91-2.04a.49.34 6.3 0 1 .51-.27c11.91 1 21.48-.99 28.56-11.15q.42-.6.4.13-.09 5.97-.09 11.32c0 19.57-13.35 33.5-33.05 34.92q-3.27.23-21.67.15c-16.83-.07-32.15-11.09-35.2-28.15-.96-5.36-.47-12.56-.63-18.72q-.03-1.04.54-.16c6.72 10.45 17.66 13.05 29.54 11.61a.53.39-12.7 0 1 .5.22c.58 1.39-12.59 2.18-13.69 2.16q-1.41-.03-.62 1.04l2.78 3.76a1.19.88-11.9 0 0 .85.39q6.25.27 12.46-.23 1-.08.02.28-5.07 1.87-10.48 2.34-1.1.1-.34.85l5.44 5.45a1.17 1.13 65.2 0 0 .88.34l13.2-.71a.61.25-8.9 0 1 .47.11c.69.76-10.38 2.99-11.14 3.13q-.62.12-.12.51c2.68 2.09 7.23 6.67 10.82 5.35q.82-.3.57.24-.2.45-1.31 1.24a.43.43-45.9 0 0 .01.72c6.38 4.03 7.89.3 12.56-2.39q3.9-2.25 7.19-5.08.65-.56-.2-.74-4.73-1-9.31-2.51c-1.03-.35-.94-.8.47-.59q5.72.82 11.52.79a1.55 1.55 26 0 0 .9-.31q3.31-2.47 5.28-6a.35.35 18.2 0 0-.26-.51Zm-53.59-3.6c.81 3.16 1.21-1.12.21-.65a.6.46 70.7 0 0-.21.65Zm60.08-.27q-1.04.97.27 1.05a.82.77 15.7 0 0 .77-.4q.33-.62-.18-.85a.87.69-51.5 0 0-.86.2Zm-59.11 5.34c.46 3.15 2.56 4.35 5.4 4.97q.83.18.35-.49l-3.56-5.01a1.12 1.05 73.8 0 0-.8-.47q-.58-.05-1.04.2a.82.71 72.9 0 0-.35.8Zm53.36 4.84q4.9-.2 5.22-5.04a.68.5-85.1 0 0-.44-.71l-.96-.1a1.07.62-61.8 0 0-.78.48l-3.38 4.76q-.46.65.34.61Zm-45.72 7.72q3.41 2.49 7.55 1.59.5-.11.11-.45l-5.51-4.88a1.44 1.4-21.4 0 0-.88-.37q-7.61-.52-1.27 4.11Zm44.2-.36q5.58-4.94-1.98-3.83a1.87 1.63 16.9 0 0-.89.4l-5.59 4.91q-.59.52.19.67 4.8.93 8.27-2.15Zm-8.04 4.59c-.03-.69-5.91-1.11-4.51.44a1.15.65-13.2 0 0 .86.25l2.98-.24a.71.41-3.8 0 0 .67-.45Zm-23.752.347a2.39.57 5.7 0 0-2.321-.804 2.39.57 5.7 0 0-2.435.33 2.39.57 5.7 0 0 2.321.804 2.39.57 5.7 0 0 2.435-.33Z"/><path fill="#fff" d="M57.13 72.71c.2-.06 1.12-4.98 1.32-5.68a.66.57-78.3 0 1 .64-.49q.55.06.92.54.4.51.7.67l4.2 2.26a.51.49 28.4 0 1 .21.67q-2.78 5.33-7.15 8.47a1.68 1.68-44.7 0 1-1.97-.01q-4.85-3.56-7.13-8.47a.55.51-27.4 0 1 .24-.68l5.67-3.27a.66.64 70 0 1 .95.46l.99 5.19a.4.31 77.3 0 0 .41.34Z"/><path fill="#777e77" fill-opacity=".647" d="M26.81 78c1-.47.6 3.81-.21.65a.6.46 70.7 0 1 .21-.65ZM87.54 78.18q.51.23.18.85a.82.77 15.7 0 1-.77.4q-1.31-.08-.27-1.05a.87.69-51.5 0 1 .86-.2Z"/><rect width="4.88" height="9.96" x="-2.44" y="-4.98" fill="#fff" rx="1.24" transform="rotate(-.1 65478.506 -20678.212)"/><rect width="4.74" height="9.98" x="-2.37" y="-4.99" fill="#fff" rx="1.39" transform="rotate(.1 -65450.3 24774.528)"/><rect width="4.74" height="9.98" x="-2.37" y="-4.99" fill="#fff" rx="1.22" transform="rotate(-.3 21850.882 -9515.053)"/><rect width="4.74" height="9.9" x="-2.37" y="-4.95" fill="#fff" rx="1.19" transform="rotate(-.3 21859.662 -12139.189)"/><rect width="4.62" height="9.92" x="-2.31" y="-4.96" fill="#fff" rx="1.03" transform="rotate(-.6 10948.241 -6704.655)"/><rect width="4.74" height="9.98" x="-2.37" y="-4.99" fill="#fff" rx="1.18" transform="rotate(-.5 13131.973 -8840.848)"/></svg>