<?xml version="1.0" encoding="UTF-8" standalone="no"?>
<!-- Uploaded to: SVG Repo, www.svgrepo.com, Generator: SVG Repo Mixer Tools -->

<svg
   height="800px"
   width="800px"
   version="1.1"
   id="Layer_1"
   viewBox="0 0 459.994 459.994"
   xml:space="preserve"
   sodipodi:docname="empty.svg"
   inkscape:version="1.3 (0e150ed6c4, 2023-07-21)"
   xmlns:inkscape="http://www.inkscape.org/namespaces/inkscape"
   xmlns:sodipodi="http://sodipodi.sourceforge.net/DTD/sodipodi-0.dtd"
   xmlns="http://www.w3.org/2000/svg"
   xmlns:svg="http://www.w3.org/2000/svg"><defs
   id="defs9" /><sodipodi:namedview
   id="namedview9"
   pagecolor="#ffffff"
   bordercolor="#000000"
   borderopacity="0.25"
   inkscape:showpageshadow="2"
   inkscape:pageopacity="0.0"
   inkscape:pagecheckerboard="0"
   inkscape:deskcolor="#d1d1d1"
   inkscape:zoom="1.01625"
   inkscape:cx="400"
   inkscape:cy="400"
   inkscape:window-width="1920"
   inkscape:window-height="1011"
   inkscape:window-x="0"
   inkscape:window-y="32"
   inkscape:window-maximized="1"
   inkscape:current-layer="g9" />&#10;<g
   id="g9">&#10;	<path
   style="fill:#FEE187;"
   d="M230.004,0c-127.025,0-230,102.975-230,230c0,115.601,85.285,211.283,196.369,227.559   l261.349-260.09C441.918,85.849,345.986,0,230.004,0z"
   id="path1" />&#10;	<path
   style="fill:#FFC61B;"
   d="M392.638,392.635c53.773-53.773,75.339-127.546,64.728-197.373L361.29,99.185L99.66,360.815   l96.723,96.723C265.879,467.75,339.152,446.12,392.638,392.635z"
   id="path2" />&#10;	<path
   style="fill:#D48B07;"
   d="M415.337,229.667c0,102.175-82.824,185-185,185l-129.5-185l129.5-185   C332.512,44.667,415.337,127.491,415.337,229.667z"
   id="path3" />&#10;	<path
   style="fill:#E0A300;"
   d="M45.337,229.667c0,102.175,82.825,185,185,185v-370C128.161,44.667,45.337,127.491,45.337,229.667z"
   id="path4" />&#10;	<path
   style="fill:#FEE187;"
   d="M230.337,384.667l-96.875-155l96.875-155c85.468,0,155,69.532,155,155   S315.804,384.667,230.337,384.667z"
   id="path5" />&#10;	<path
   style="fill:#FFEDB5;"
   d="M75.337,229.667c0,85.468,69.532,155,155,155v-310C144.869,74.667,75.337,144.199,75.337,229.667z"
   id="path6" />&#10;	<path
   style="fill:#FFEDB5;"
   d="M230.337,364.667l-84.375-135l84.375-135c74.44,0,135,60.56,135,135   S304.776,364.667,230.337,364.667z"
   id="path7" />&#10;	<path
   style="fill:#FFFFFF;"
   d="M95.337,229.667c0,74.439,60.56,135,135,135v-270C155.897,94.667,95.337,155.227,95.337,229.667z"
   id="path8" />&#10;	&#10;</g>&#10;</svg>
