<?xml version="1.0" encoding="UTF-8" standalone="no"?>
<!-- Uploaded to: SVG Repo, www.svgrepo.com, Generator: SVG Repo Mixer Tools -->

<svg
   height="800px"
   width="800px"
   version="1.1"
   id="Layer_1"
   viewBox="0 0 512 512"
   xml:space="preserve"
   sodipodi:docname="coin-svgrepo-com(1).svg"
   inkscape:version="1.3 (0e150ed6c4, 2023-07-21)"
   xmlns:inkscape="http://www.inkscape.org/namespaces/inkscape"
   xmlns:sodipodi="http://sodipodi.sourceforge.net/DTD/sodipodi-0.dtd"
   xmlns="http://www.w3.org/2000/svg"
   xmlns:svg="http://www.w3.org/2000/svg"><defs
   id="defs7" /><sodipodi:namedview
   id="namedview7"
   pagecolor="#ffffff"
   bordercolor="#000000"
   borderopacity="0.25"
   inkscape:showpageshadow="2"
   inkscape:pageopacity="0.0"
   inkscape:pagecheckerboard="0"
   inkscape:deskcolor="#d1d1d1"
   inkscape:zoom="1.01625"
   inkscape:cx="400.492"
   inkscape:cy="400"
   inkscape:window-width="1920"
   inkscape:window-height="1011"
   inkscape:window-x="0"
   inkscape:window-y="32"
   inkscape:window-maximized="1"
   inkscape:current-layer="Layer_1" />&#10;<path
   style="fill:#FFE14D;"
   d="M256,512C114.837,512,0,397.157,0,256S114.837,0,256,0s256,114.843,256,256S397.163,512,256,512z"
   id="path1" />&#10;<path
   style="fill:#FFCC33;"
   d="M512,256C512,114.843,397.163,0,256,0v512C397.163,512,512,397.157,512,256z"
   id="path2" />&#10;<path
   style="fill:#FF9F19;"
   d="M256,33.391C133.25,33.391,33.391,133.256,33.391,256S133.25,478.609,256,478.609  S478.609,378.744,478.609,256S378.75,33.391,256,33.391z M256,445.217c-104.337,0-189.217-84.881-189.217-189.217  S151.663,66.783,256,66.783S445.217,151.663,445.217,256S360.337,445.217,256,445.217z"
   id="path3" />&#10;<path
   style="fill:#F28618;"
   d="M445.217,256c0,104.337-84.881,189.217-189.217,189.217v33.391  c122.75,0,222.609-99.864,222.609-222.609S378.75,33.391,256,33.391v33.391C360.337,66.783,445.217,151.663,445.217,256z"
   id="path4" />&#10;&#10;&#10;</svg>
